<svg xmlns="http://www.w3.org/2000/svg" width="48" height="48" viewBox="0 0 48 48">
    <path data-name="Path 2750" d="m-16.258 38.052-14.925-22.281V13.5h8.219a1.868 1.868 0 0 0 1.483-.725 1.867 1.867 0 0 0 .338-1.614L-21.691 9l.548-2.16a1.871 1.871 0 0 0-.339-1.616 1.868 1.868 0 0 0-1.482-.724h-8.719a2.5 2.5 0 0 0-2.5 2.5v8.771l-14.926 22.281a3.5 3.5 0 0 0-.179 3.6A3.493 3.493 0 0 0-46.2 43.5h27.035a3.494 3.494 0 0 0 3.088-1.851 3.5 3.5 0 0 0-.181-3.597zM-31.183 7.5h6.777l-.225.884a2.538 2.538 0 0 0 0 1.231l.225.885h-6.777zm3.728 19.227h-10.456l5.228-7.8zm8.731 13.509a.485.485 0 0 1-.442.264H-46.2a.483.483 0 0 1-.441-.264.481.481 0 0 1 .026-.514l6.695-10h14.476l6.695 9.994a.487.487 0 0 1 .025.52z" style="fill:#FFFFFF" transform="translate(56.683)"/>
</svg>
