<svg xmlns="http://www.w3.org/2000/svg" width="48" height="48" viewBox="0 0 48 48">
    <path data-name="Path 2763" d="M-18.474 21.533h-4.035l-.265-3.838a3.959 3.959 0 0 0-3.043-3.418l-1.9-.438c.035-.1.082-.2.112-.308a2.787 2.787 0 0 0 .809-1.726l.142-1.241a2.151 2.151 0 0 0-.556-1.648A4.613 4.613 0 0 0-28.435 6.1a5.384 5.384 0 0 0-4-1.605 5.384 5.384 0 0 0-4 1.605 4.616 4.616 0 0 0-1.228 2.814 2.175 2.175 0 0 0-.555 1.67l.138 1.192a2.811 2.811 0 0 0 .812 1.752c.03.106.076.2.112.307l-1.9.438a3.977 3.977 0 0 0-3.048 3.48l-.26 3.776h-4.07a1.5 1.5 0 0 0-1.5 1.5 1.5 1.5 0 0 0 1.5 1.5h.5V27.1a3.5 3.5 0 0 0 3.5 3.5h.754l.75 9.667a3.518 3.518 0 0 0 3.484 3.233h10.008a3.518 3.518 0 0 0 3.49-3.229l.748-9.671h.725a3.5 3.5 0 0 0 3.5-3.5v-2.567h.5a1.5 1.5 0 0 0 1.5-1.5 1.5 1.5 0 0 0-1.499-1.5zM-34.682 9.569a1.809 1.809 0 0 1 .431-1.414 2.472 2.472 0 0 1 1.813-.655 2.475 2.475 0 0 1 1.813.655 1.809 1.809 0 0 1 .43 1.415l-.041 1.363.511.1-.044.376a1.639 1.639 0 0 0-.666 1.06 2.343 2.343 0 0 1-.611 1.225l-.063.061a2.113 2.113 0 0 1-.491.353c-.022.011-.042.023-.064.033a1.957 1.957 0 0 1-.261.1c-.037.01-.073.025-.111.033a1.779 1.779 0 0 1-.4.049h-.005a1.709 1.709 0 0 1-.4-.048c-.042-.009-.082-.024-.123-.037a1.856 1.856 0 0 1-.245-.089c-.029-.013-.055-.029-.083-.043a2.107 2.107 0 0 1-.244-.149l-.007-.005a2.089 2.089 0 0 1-.228-.192l-.042-.041a2.356 2.356 0 0 1-.631-1.247 1.651 1.651 0 0 0-.667-1.057l-.046-.4.56-.136zm-4.44 8.457a.958.958 0 0 1 .736-.826l3.2-.738c.039.027.083.045.123.071a5.078 5.078 0 0 0 .458.264c.053.026.108.049.162.073a4.828 4.828 0 0 0 2.006.453 4.828 4.828 0 0 0 2.02-.459c.046-.021.092-.04.137-.062a4.728 4.728 0 0 0 .483-.279c.035-.022.073-.038.107-.061l3.2.738a.945.945 0 0 1 .729.763l.245 3.57h-13.846zm12.183 22.012a.5.5 0 0 1-.5.462h-10.007a.5.5 0 0 1-.5-.462l-.732-9.434h12.468zm4.965-12.938a.5.5 0 0 1-.5.5h-19.965a.5.5 0 0 1-.5-.5v-2.567h20.965z" style="fill:#FFFFFF" transform="translate(56.439)"/>
</svg>
