<svg xmlns="http://www.w3.org/2000/svg" width="48" height="48" viewBox="0 0 48 48">
    <path data-name="Path 2753" d="M-18.561 11.853a3.487 3.487 0 0 0-2.768-1.353h-1.677a64.91 64.91 0 0 0 .1-2.444 3.47 3.47 0 0 0-1-2.508 3.477 3.477 0 0 0-2.5-1.048H-43.57a3.479 3.479 0 0 0-2.5 1.048 3.461 3.461 0 0 0-1 2.508c.015.852.052 1.659.1 2.444h-1.53a3.491 3.491 0 0 0-2.77 1.353 3.448 3.448 0 0 0-.63 2.978c1.642 6.522 5 10.26 9.493 10.632a10.3 10.3 0 0 0 3.207 2.608v6.48h-.775a2.5 2.5 0 0 0-2.5 2.5v4a2.5 2.5 0 0 0 2.5 2.5h10a2.5 2.5 0 0 0 2.5-2.5v-4a2.5 2.5 0 0 0-2.5-2.5h-.8v-6.479a10.3 10.3 0 0 0 3.208-2.61c4.529-.379 8.019-4.2 9.639-10.631a3.448 3.448 0 0 0-.633-2.978zm-11.917 28.7h-9v-3h9zM-48.993 14.1a.456.456 0 0 1 .088-.4.5.5 0 0 1 .4-.2h1.793a29.763 29.763 0 0 0 1.979 8.062c-2.283-1.532-3.56-4.687-4.26-7.462zm15.217 20.4H-36.2v-5.494a9.258 9.258 0 0 0 1.214.082 9.255 9.255 0 0 0 1.213-.082zm-1.213-8.412c-8.123 0-9.005-13.843-9.082-18.087a.476.476 0 0 1 .14-.351.5.5 0 0 1 .361-.15h17.162a.5.5 0 0 1 .36.15.481.481 0 0 1 .14.352c-.077 4.243-.957 18.086-9.081 18.086zm9.718-4.475a29.574 29.574 0 0 0 2-8.113h1.94a.5.5 0 0 1 .4.2.45.45 0 0 1 .089.4c-.588 2.345-1.869 5.879-4.429 7.513z" style="fill:#FFFFFF" transform="translate(58.989)"/>
</svg>
