<svg xmlns="http://www.w3.org/2000/svg" width="48" height="48" viewBox="0 0 48 48"> <path fill="#FFF" fill-rule="evenodd" d="M32.5 38.8c.4-.3 1-.2 1.5.4.2.5.1 1.1-.4 1.4-1.9 1.1-4 1.8-6.2 2.2h-.2c-.5 0-.9-.3-1-.8-.1-.6.3-1.1.8-1.2 1.9-.3 3.8-1 5.5-2zm-18.4.3c.3-.5.9-.7 1.4-.4 1.7 1 3.5 1.7 5.5 2 .5.1.9.7.9 1.3-.1.5-.5.8-1 .8h-.2c-2.2-.4-4.3-1.2-6.2-2.3-.5-.3-.7-.9-.4-1.4zm25.8-9.2c.2-.5.8-.8 1.3-.6.6.2.8.7.5 1.2-.7 2.1-1.9 4-3.3 5.7-.2.3-.5.4-.8.4-.2 0-.4 0-.6-.2-.4-.3-.5-1-.1-1.4 1.3-1.5 2.3-3.2 3-5.1zm-33.2-.7c.5-.2 1.1.1 1.3.6.7 1.8 1.7 3.6 2.9 5.2.4.4.3 1-.1 1.4-.1.1-.4.2-.6.2-.3 0-.6-.2-.8-.4-1.4-1.7-2.5-3.6-3.3-5.7-.2-.5.1-1.1.6-1.3zM24 14.6c.6 0 1 .4 1 1v14.8l3.9-7.5c.2-.5.8-.7 1.3-.4.5.2.7.8.4 1.3l-4.1 8.1c-.6 1-1.5 1.5-2.5 1.5s-1.9-.5-2.4-1.4l-4.2-8.2c-.3-.4-.1-1 .4-1.3.4-.3 1-.1 1.3.4l3.9 7.5V15.6c0-.6.4-1 1-1zm16.6 2.3c.5-.2 1.1.1 1.3.6.7 2.1 1.1 4.3 1.1 6.6 0 .5-.4 1-1 1s-1-.4-1-1V24c0-2-.3-3.9-1-5.8-.2-.5.1-1.1.6-1.3zm-34.5.6c.2-.5.8-.8 1.3-.6.5.2.8.8.6 1.3C7.4 20 7 22 7 24c0 .5-.4 1-1 1l-.125-.006C5.345 24.942 5 24.557 5 24c0-2.3.4-4.5 1.1-6.5zm26-9.5c.3-.5.9-.7 1.4-.4 1.9 1.1 3.6 2.5 5 4.2.4.4.3 1-.1 1.4-.1.1-.4.2-.6.2-.3 0-.6-.1-.8-.3-1.3-1.5-2.8-2.8-4.5-3.8-.5-.3-.6-.9-.4-1.3zm-17.6-.5c.5-.2 1.1-.1 1.4.4.3.5.1 1.1-.5 1.2-1.7 1-3.2 2.3-4.5 3.8-.2.3-.5.4-.8.4-.2 0-.4 0-.6-.2-.4-.3-.5-1-.1-1.4 1.5-1.7 3.2-3.1 5.1-4.2zM24 5c1.1 0 2.2.1 3.4.3.5.1.9.7.8 1.2-.1.5-.5.8-1 .8H27c-1-.2-2-.3-3-.3l-.428.006c-.856.025-1.7.123-2.472.294-.6 0-1.1-.3-1.2-.8-.1-.6.3-1.1.8-1.2 1.1-.2 2.2-.3 3.3-.3z"/></svg>