<svg xmlns="http://www.w3.org/2000/svg" width="32" height="32" viewBox="0 0 32 32">  <g data-name="Group 750">    <path data-name="Quora" d="M24.256 25.9A10.238 10.238 0 0 0 18.962 7a10.213 10.213 0 0 0 0 20.424 9.934 9.934 0 0 0 2.375-.289c.956 1.74 2.413 2.971 5.505 2.383v-1.731a4.219 4.219 0 0 1-2.586-1.887zm-.07-7.338a7.213 7.213 0 0 1-1.424 4.4 6.366 6.366 0 0 0-5.045-2.025v2.007a3.33 3.33 0 0 1 2.517 1.817 4.217 4.217 0 0 1-1.193.173c-2.842 0-5.145-2.851-5.145-6.369v-2.634c0-3.517 2.3-6.369 5.145-6.369s5.146 2.852 5.146 6.369z" transform="translate(-2.963 -2.333)" style="fill:#2b343d"/>  </g></svg>