<svg xmlns="http://www.w3.org/2000/svg" width="48" height="48" viewBox="0 0 48 48">
    <defs>
        <style>
            .cls-2{fill:#FFFFFF}
        </style>
    </defs>
    <g id="references-t" transform="translate(68.147)">
        <g id="Group_690" data-name="Group 690">
            <path id="Path_2806" data-name="Path 2806" class="cls-2" d="M-54.442 44.758a2.513 2.513 0 0 1-1-.211 2.47 2.47 0 0 1-1.507-2.266L-57 38h-2.811a3.5 3.5 0 0 1-3.5-3.5V13.4a3.505 3.505 0 0 1 3.5-3.5h18.321a1.5 1.5 0 0 1 1.5 1.5 1.5 1.5 0 0 1-1.5 1.5h-18.322a.5.5 0 0 0-.5.5v21.1a.5.5 0 0 0 .5.5h4.294a1.5 1.5 0 0 1 1.5 1.483l.053 4.648 6.249-5.736A1.5 1.5 0 0 1-46.7 35h18.22a.5.5 0 0 0 .5-.5V21.519a1.5 1.5 0 0 1 1.5-1.5 1.5 1.5 0 0 1 1.5 1.5V34.5a3.5 3.5 0 0 1-3.5 3.5h-17.638l-6.643 6.1a2.481 2.481 0 0 1-1.681.658z"/>
            <path id="Path_2807" data-name="Path 2807" class="cls-2" d="M-53.257 28.012a4.06 4.06 0 0 1-4.055-4.055 4.061 4.061 0 0 1 4.055-4.057 4.06 4.06 0 0 1 4.057 4.057 4.06 4.06 0 0 1-4.057 4.055zm0-5.11a1.056 1.056 0 0 0-1.055 1.055 1.056 1.056 0 0 0 1.055 1.055 1.056 1.056 0 0 0 1.057-1.055 1.056 1.056 0 0 0-1.057-1.057z"/>
            <path id="Path_2808" data-name="Path 2808" class="cls-2" d="M-44.147 28.012a4.06 4.06 0 0 1-4.053-4.055 4.06 4.06 0 0 1 4.053-4.057 4.06 4.06 0 0 1 4.055 4.055 4.06 4.06 0 0 1-4.055 4.057zm0-5.11a1.056 1.056 0 0 0-1.053 1.055 1.056 1.056 0 0 0 1.055 1.055 1.056 1.056 0 0 0 1.055-1.055 1.056 1.056 0 0 0-1.057-1.057z"/>
            <path id="Path_2809" data-name="Path 2809" class="cls-2" d="M-35.036 28.012a4.06 4.06 0 0 1-4.056-4.055 4.06 4.06 0 0 1 4.056-4.057 4.06 4.06 0 0 1 4.054 4.055 4.059 4.059 0 0 1-4.054 4.057zm0-5.11a1.057 1.057 0 0 0-1.056 1.055 1.057 1.057 0 0 0 1.056 1.055 1.055 1.055 0 0 0 1.054-1.055 1.055 1.055 0 0 0-1.054-1.057z"/>
            <path id="Path_2810" data-name="Path 2810" class="cls-2" d="M-34.491 17.137a1.5 1.5 0 0 1-1.061-.44 1.5 1.5 0 0 1 0-2.121 9.182 9.182 0 0 0 2.216-3.676h-1.155a1.5 1.5 0 0 1-1.5-1.5 1.5 1.5 0 0 1 1.5-1.5h3a1.5 1.5 0 0 1 1.093.472 1.506 1.506 0 0 1 .4 1.12 12.1 12.1 0 0 1-3.442 7.2 1.5 1.5 0 0 1-1.051.445z"/>
            <path id="Path_2811" data-name="Path 2811" class="cls-2" d="M-28.487 17.137a1.5 1.5 0 0 1-1.06-.44 1.5 1.5 0 0 1 0-2.121 9.181 9.181 0 0 0 2.216-3.676h-1.156a1.5 1.5 0 0 1-1.5-1.5 1.5 1.5 0 0 1 1.5-1.5h3a1.5 1.5 0 0 1 1.093.472 1.5 1.5 0 0 1 .4 1.12 12.087 12.087 0 0 1-3.441 7.2 1.5 1.5 0 0 1-1.052.445z"/>
        </g>
    </g>
</svg>
