<svg xmlns="http://www.w3.org/2000/svg" width="32" height="32" viewBox="0 0 32 32">  <g data-name="Group 748">    <path data-name="Skype" d="M28.721 19.974A10.514 10.514 0 0 0 16.692 7.946a6.356 6.356 0 0 0-8.746 8.746 10.746 10.746 0 0 0-.129 1.641 10.525 10.525 0 0 0 12.158 10.388 6.356 6.356 0 0 0 8.746-8.747zm-5.395 3.142a4.369 4.369 0 0 1-1.952 1.5 7.783 7.783 0 0 1-3.035.54 7.254 7.254 0 0 1-3.473-.739A4.5 4.5 0 0 1 13.284 23a3.083 3.083 0 0 1-.613-1.739 1.154 1.154 0 0 1 .375-.861 1.336 1.336 0 0 1 .954-.364 1.192 1.192 0 0 1 .8.281 2.134 2.134 0 0 1 .547.813 5.086 5.086 0 0 0 .577 1.035 2.289 2.289 0 0 0 .865.679 3.418 3.418 0 0 0 1.473.267 3.52 3.52 0 0 0 2.039-.54 1.571 1.571 0 0 0 .773-1.334 1.337 1.337 0 0 0-.413-1.024 2.749 2.749 0 0 0-1.09-.61q-.676-.215-1.813-.454a14.2 14.2 0 0 1-2.558-.778 4.153 4.153 0 0 1-1.647-1.219 3.031 3.031 0 0 1-.612-1.931 3.144 3.144 0 0 1 .645-1.949 4.033 4.033 0 0 1 1.863-1.308 8.107 8.107 0 0 1 2.85-.455 7.582 7.582 0 0 1 2.264.3 5 5 0 0 1 1.591.8 3.444 3.444 0 0 1 .928 1.056 2.317 2.317 0 0 1 .3 1.086 1.261 1.261 0 0 1-.376.888 1.24 1.24 0 0 1-.936.393 1.13 1.13 0 0 1-.779-.24 3.112 3.112 0 0 1-.564-.759 3.372 3.372 0 0 0-.913-1.143 2.811 2.811 0 0 0-1.705-.4 3.141 3.141 0 0 0-1.761.443 1.251 1.251 0 0 0-.659 1.047 1.007 1.007 0 0 0 .221.649 1.855 1.855 0 0 0 .622.479 4.3 4.3 0 0 0 .809.319c.275.078.733.191 1.367.341q1.2.257 2.168.572a6.794 6.794 0 0 1 1.657.765 3.225 3.225 0 0 1 1.077 1.148 3.443 3.443 0 0 1 .387 1.7 3.688 3.688 0 0 1-.671 2.163z" transform="translate(-2.333 -2.333)" style="fill:#2b343d"/>  </g></svg>