<svg xmlns="http://www.w3.org/2000/svg" width="48" height="48" viewBox="0 0 48 48">
    <defs>
        <style>
            .cls-2{fill:#FFFFFF}
        </style>
    </defs>
    <g id="skills-soft-t" transform="translate(56.228)">
        <g id="Group_697" data-name="Group 697">
            <path id="Path_2821" data-name="Path 2821" class="cls-2" d="m-11.612 26.992-2.6-7.677a18.513 18.513 0 0 0-5.395-8.088 1.5 1.5 0 0 0-2.116.157 1.5 1.5 0 0 0 .157 2.115 15.509 15.509 0 0 1 4.513 6.781l2.606 7.676a.217.217 0 0 1-.03.206.219.219 0 0 1-.186.095h-2.658a1.5 1.5 0 0 0-1.5 1.5v3.725h-1.956a1.5 1.5 0 0 0-1.5 1.5 1.5 1.5 0 0 0 1.5 1.5h1.956v1.59a.227.227 0 0 1-.227.227h-5.155a3.231 3.231 0 0 0-3.227 3.228v3.455a1.5 1.5 0 0 0 1.5 1.5 1.5 1.5 0 0 0 1.5-1.5v-3.455a.228.228 0 0 1 .227-.228h5.155a3.231 3.231 0 0 0 3.227-3.227v-6.815h1.158a3.235 3.235 0 0 0 2.624-1.348 3.232 3.232 0 0 0 .427-2.917z"/>
            <path id="Path_2822" data-name="Path 2822" class="cls-2" d="M-41.417 34.178a1.5 1.5 0 0 0-2.09-.363 1.5 1.5 0 0 0-.364 2.09 23.9 23.9 0 0 0 4.149 4.526.285.285 0 0 1 .11.2v4.353a1.5 1.5 0 0 0 1.5 1.5 1.5 1.5 0 0 0 1.5-1.5v-4.355a3.259 3.259 0 0 0-1.187-2.5 20.821 20.821 0 0 1-3.618-3.951z"/>
            <path id="Path_2823" data-name="Path 2823" class="cls-2" d="M-30.371 3.823A10.463 10.463 0 0 0-38.8 1.45a10.683 10.683 0 0 0-8.7 11.369 12.451 12.451 0 0 0 1.963 5.292 17.017 17.017 0 0 1 2.386 5.378 2.488 2.488 0 0 0 2.463 2.11h7.1a2.488 2.488 0 0 0 2.463-2.111 17.328 17.328 0 0 1 2.425-5.449 11.627 11.627 0 0 0 1.971-6.3 10.4 10.4 0 0 0-3.642-7.916zm-.869 12.624a21.153 21.153 0 0 0-2.774 6.153h-1.629v-6.19a1.5 1.5 0 0 0-1.5-1.5 1.5 1.5 0 0 0-1.5 1.5v6.19h-1.628A20.989 20.989 0 0 0-43 16.519a9.355 9.355 0 0 1-1.52-4 7.7 7.7 0 0 1 6.177-8.107A7.363 7.363 0 0 1-32.322 6.1a7.414 7.414 0 0 1 2.594 5.634 8.523 8.523 0 0 1-1.512 4.713z"/>
            <path id="Path_2824" data-name="Path 2824" class="cls-2" d="M-34.172 26.57h-5.943a1.5 1.5 0 0 0-1.5 1.5 1.5 1.5 0 0 0 1.5 1.5h5.943a1.5 1.5 0 0 0 1.5-1.5 1.5 1.5 0 0 0-1.5-1.5z"/>
            <path id="Path_2825" data-name="Path 2825" class="cls-2" d="M-35.658 30.541h-2.971a1.5 1.5 0 0 0-1.5 1.5 1.5 1.5 0 0 0 1.5 1.5h2.971a1.5 1.5 0 0 0 1.5-1.5 1.5 1.5 0 0 0-1.5-1.5z"/>
        </g>
    </g>
</svg>
