<svg xmlns="http://www.w3.org/2000/svg" width="48" height="48" viewBox="0 0 48 48">
    <path data-name="Path 2756" d="m30.351 25.9 5.788-10.025a3.483 3.483 0 0 0-.112-3.677l-4.247-6.43v-.005a1.506 1.506 0 0 0-.225-.26c-.022-.021-.047-.039-.071-.058a1.467 1.467 0 0 0-.221-.152c-.023-.013-.046-.027-.071-.039a1.481 1.481 0 0 0-.309-.113l-.016-.006a1.536 1.536 0 0 0-.335-.04h-13.06a1.5 1.5 0 0 0-.337.041c-.01 0-.02.007-.03.01a1.457 1.457 0 0 0-.29.106c-.03.015-.058.031-.087.047a1.507 1.507 0 0 0-.2.142.973.973 0 0 0-.079.065 1.476 1.476 0 0 0-.222.258L11.973 12.2a3.48 3.48 0 0 0-.11 3.679L17.649 25.9 11.73 36.155a2.5 2.5 0 0 0 2.015 3.745l2.1.127L17 41.782a2.485 2.485 0 0 0 2.089 1.118h.076a2.487 2.487 0 0 0 2.091-1.249L24 36.9l2.744 4.754a2.491 2.491 0 0 0 2.093 1.246h.074a2.479 2.479 0 0 0 2.083-1.122l1.16-1.756 2.1-.127a2.5 2.5 0 0 0 2.016-3.745zM24 14.9l-3.93-6.8h7.86zm-9.54-.523a.5.5 0 0 1 .017-.526l2.909-4.407 4.882 8.456-2.887 5zm5.048 25.749zm-.445-.675-1.127-1.706a1.5 1.5 0 0 0-1.162-.67l-2.042-.124L30.614 9.447l2.909 4.406a.5.5 0 0 1 .017.527zm12.163-2.376a1.5 1.5 0 0 0-1.161.669l-1.127 1.706-3.206-5.55 2.887-5 4.649 8.052z" style="fill:#FFFFFF"/>
</svg>
