<svg id="teaching-t" xmlns="http://www.w3.org/2000/svg" width="48" height="48" viewBox="0 0 48 48">
    <defs>
        <style>
            .cls-2{fill:#FFFFFF}
        </style>
    </defs>
    <g id="Group_703" data-name="Group 703">
        <path id="Path_2833" data-name="Path 2833" class="cls-2" d="M36.048 4.5H17.45a3.494 3.494 0 0 0-3.47 3.2 1.512 1.512 0 0 0-.03.3v7.411a1.5 1.5 0 0 0 3 0V8a.5.5 0 0 1 .5-.5h18.6a.5.5 0 0 1 .5.5v20.661a.5.5 0 0 1-.5.5h-18.6a.5.5 0 0 1-.5-.5v-1.25a1.5 1.5 0 0 0-3 0v1.25a3.5 3.5 0 0 0 3.5 3.5h7.25l-4.726 9.073a1.5 1.5 0 1 0 2.66 1.386l3.039-5.833v5.286a1.5 1.5 0 0 0 3 0v-5.348l3.186 6.047a1.5 1.5 0 1 0 2.655-1.4l-4.855-9.212h6.385a3.5 3.5 0 0 0 3.5-3.5V8a3.5 3.5 0 0 0-3.496-3.5z"/>
        <path id="Path_2834" data-name="Path 2834" class="cls-2" d="M28.126 18.289a1.5 1.5 0 0 0-1.047-2.812l-15.4 5.738a2.5 2.5 0 0 0-2.483-2.332H7.059a2.5 2.5 0 0 0-2.5 2.5v4.309a2.5 2.5 0 0 0 2.5 2.5h2.134a2.5 2.5 0 0 0 2.5-2.5v-1.281zm-19.433 6.9H7.559v-3.306h1.134z"/>
    </g>
</svg>
