<svg xmlns="http://www.w3.org/2000/svg" id="template-switch" width="48" height="48" viewBox="0 0 48 48"> <defs> <style> .cls-2,.cls-3{fill:#fff}.cls-2{stroke:#000;stroke-linecap:round;stroke-linejoin:round;stroke-width:2px} </style> </defs> <g id="Group_148" data-name="Group 148" transform="translate(.021 -.284)"> <path id="Path_429" d="M37.992 22.972h-7.169a3 3 0 0 1-3-3V7.284a3 3 0 0 1 3-3h7.169a3 3 0 0 1 3 3v12.688a3 3 0 0 1-3 3zM30.823 6.284a1 1 0 0 0-1 1v12.688a1 1 0 0 0 1 1h7.169a1 1 0 0 0 1-1V7.284a1 1 0 0 0-1-1z" class="cls-3" data-name="Path 429"/> <path id="Path_432" d="M23.162 15.521v-.019a.977.977 0 0 0 .052-.321v-.07a1 1 0 0 0-.057-.29l-2-5.35a1 1 0 1 0-1.873.7l.805 2.153c-2.475-1.534-6.117-2.975-9.013-.73a5.761 5.761 0 0 0-2.006 6.427 1 1 0 0 0 1.879-.688 3.761 3.761 0 0 1 1.357-4.158c2.058-1.6 4.961-.3 6.962 1h-2.393a1 1 0 0 0 0 2h5.372l.04-.005a.989.989 0 0 0 .306-.07c.019-.008.038-.013.057-.022a1 1 0 0 0 .28-.2c.008-.008.018-.01.025-.018s.012-.023.021-.033c.023-.028.051-.051.071-.081a1 1 0 0 0 .115-.225z" class="cls-3" data-name="Path 432"/> <path id="Path_434" d="M17.1 43.728H9.979a3 3 0 0 1-3-3V28.113a3 3 0 0 1 3-3H17.1a3 3 0 0 1 3 3v12.615a3 3 0 0 1-3 3zM9.979 27.113a1 1 0 0 0-1 1v12.615a1 1 0 0 0 1 1H17.1a1 1 0 0 0 1-1V28.113a1 1 0 0 0-1-1z" class="cls-3" data-name="Path 434"/> <path id="Path_437" d="M38.853 30.064a1 1 0 1 0-1.875.693 3.769 3.769 0 0 1-1.36 4.154c-2.06 1.6-4.963.3-6.963-1h2.394a1 1 0 1 0 0-2h-5.412a1 1 0 0 0-.3.069c-.02.008-.039.013-.059.023a.988.988 0 0 0-.281.2c-.007.007-.017.009-.024.017s-.012.022-.02.032c-.024.028-.052.051-.073.081a1.007 1.007 0 0 0-.114.221v.018a.979.979 0 0 0-.052.322v.07a1 1 0 0 0 .057.29l2 5.351a1 1 0 1 0 1.873-.7l-.8-2.151a11.107 11.107 0 0 0 5.567 1.89 5.476 5.476 0 0 0 3.445-1.161 5.762 5.762 0 0 0 1.997-6.419z" class="cls-3" data-name="Path 437"/> </g></svg>