<svg xmlns="http://www.w3.org/2000/svg" width="48" height="48" viewBox="0 0 48 48"> <path fill="#FFF" fill-rule="evenodd" d="M26.3 5c1.7 0 3 1.3 3 3v1.4h5.9c1.7 0 3 1.4 3 3v2.4c0 1.6-1.2 2.9-2.7 3l-1 21.7c-.1 1.6-1.4 2.9-3 2.9H16.7c-1.6 0-2.9-1.3-3-2.9l-1-21.7c-1.5-.2-2.7-1.4-2.7-3v-2.4c0-1.7 1.3-3 3-3h5.9V8c0-1.7 1.3-3 3-3zm7.1 12.8H14.7l1 21.6c0 .6.5 1 1 1h14.8c.5 0 1-.5 1-1l.9-21.6zm-13.7 4c.6 0 1 .4 1 1v12.6c0 .6-.4 1-1 1-.5 0-1-.5-1-1V22.8c0-.6.4-1 1-1zm8.8 0c.6 0 1 .4 1 1v12.6c0 .6-.4 1-1 1s-1-.5-1-1V22.8c0-.6.4-1 1-1zm-4.4 0c.6 0 1 .4 1 1v12.6c0 .6-.4 1-1 1s-1-.5-1-1V22.8c0-.6.4-1 1-1zm11.1-10.4H13c-.6 0-1 .4-1 1v2.4c0 .6.4 1 1 1h22.2c.6 0 1-.4 1-1v-2.4c0-.6-.4-1-1-1zM26.3 7h-4.4c-.6 0-1 .4-1 1v1.4h6.4V8c0-.6-.4-1-1-1z"/></svg>