<svg xmlns="http://www.w3.org/2000/svg" width="32" height="32" viewBox="0 0 32 32">  <path data-name="Path 2937" d="M27.172 12.456a4.942 4.942 0 0 0 2.165-2.724 9.873 9.873 0 0 1-3.127 1.2 4.928 4.928 0 0 0-8.391 4.491 13.979 13.979 0 0 1-10.148-5.15 4.926 4.926 0 0 0 1.524 6.573 4.883 4.883 0 0 1-2.23-.616v.063a4.926 4.926 0 0 0 3.951 4.827 4.919 4.919 0 0 1-2.226.08 4.93 4.93 0 0 0 4.6 3.42 9.881 9.881 0 0 1-6.115 2.108A10.051 10.051 0 0 1 6 26.664a14 14 0 0 0 21.557-11.8c0-.213 0-.425-.014-.637A10.014 10.014 0 0 0 30 11.68a9.833 9.833 0 0 1-2.828.776z" transform="translate(-2 -3.124)" style="fill:#2b343d"/></svg>