<svg xmlns="http://www.w3.org/2000/svg" width="48" height="48" viewBox="0 0 48 48"> <path fill="#FFF" fill-rule="evenodd" d="M42.8 21.4c-.6-3.5-3-6.4-6-7.2-1.8-.5-3.7-.3-5.3.6-1.8-4-5.4-6.5-9.3-6.5-4.8 0-9 3.8-10.2 9.2-1.2-.1-2.4.2-3.5 1-1.9 1.2-3.1 3.3-3.4 5.6-.3 2.4.5 4.7 2 6.4 1.2 1.4 2.9 2.1 4.6 2.1h6l-1.1 1.9c-.4.6-.4 1.4 0 2 .4.6 1 1 1.7 1H23v5.4c0 .6.4 1 1 1s1-.4 1-1v-5.4h4.7c.7 0 1.4-.4 1.7-1 .4-.6.4-1.4 0-2l-1.1-1.9h4.5c2.2 0 4.3-1 5.8-2.8 2-2.2 2.8-5.3 2.2-8.4zM18.3 35.5l5.7-9.9 5.7 9.9H18.3zm20.9-7c-1.2 1.4-2.7 2.1-4.3 2.1h-5.7l-3.5-6c-.4-.6-1-1-1.7-1s-1.4.4-1.7 1l-3.5 6h-7.2c-1.2 0-2.3-.5-3.1-1.5-1.1-1.3-1.7-3-1.5-4.9.2-1.7 1.1-3.3 2.5-4.2.8-.5 1.5-.7 2.3-.7 1 .1 1.9-.6 2.1-1.6 1-4.5 4.4-7.6 8.2-7.6 3.1 0 6 2 7.5 5.3.2.5.6.9 1.2 1.1.5.2 1.1.1 1.6-.1 1.2-.6 2.5-.8 3.9-.4 2.3.6 4.1 2.9 4.6 5.6.4 2.6-.2 5.2-1.7 6.9z"/></svg>