<svg xmlns="http://www.w3.org/2000/svg" width="48" height="48" viewBox="0 0 48 48">
    <defs>
        <style>
            .cls-2{fill:#FFFFFF}
        </style>
    </defs>
    <g id="volunteer-t" transform="translate(60.992)">
        <g id="Group_670" data-name="Group 670">
            <path id="Path_2770" data-name="Path 2770" class="cls-2" d="M-20.521 5.277c-2.713-2.715-6.653-1.23-8.329-.4-1.678-.833-5.617-2.318-8.329.4a8.324 8.324 0 0 0-2.456 6.875c.451 3.821 3.456 7.463 8.932 10.824a3.531 3.531 0 0 0 1.854.527A3.536 3.536 0 0 0-27 22.976c5.476-3.361 8.481-7 8.931-10.824a8.32 8.32 0 0 0-2.452-6.875zm-.524 6.524c-.333 2.822-2.934 5.8-7.522 8.619a.537.537 0 0 1-.566 0c-4.589-2.817-7.19-5.8-7.523-8.62a5.4 5.4 0 0 1 1.6-4.4 2.477 2.477 0 0 1 1.821-.673 8.326 8.326 0 0 1 3.588 1.133 1.5 1.5 0 0 0 1.592 0c.036-.022 3.671-2.2 5.414-.462a5.4 5.4 0 0 1 1.596 4.402z"/>
            <path id="Path_2771" data-name="Path 2771" class="cls-2" d="m-25.562 35.18-9.241-.691a.512.512 0 0 1-.214-.064l-7.725-4.343a.773.773 0 0 1-.394-.674.758.758 0 0 1 .384-.668.755.755 0 0 1 .768-.009l3.074 1.736a3.73 3.73 0 0 0 3.755-.026 3.736 3.736 0 0 0 1.871-3.258A3.779 3.779 0 0 0-35.2 23.9l-8.237-4.645a3.5 3.5 0 0 0-1.723-.455h-7.315a3.5 3.5 0 0 0-3.5 3.5v9.047a3.5 3.5 0 0 0 3.5 3.5h1.212a.5.5 0 0 1 .227.054l14.53 7.393a1.464 1.464 0 0 0 .331.122l.908.218a1.512 1.512 0 0 0 .348.041H-24.1a2.373 2.373 0 0 0 2.371-2.37v-1.024a4.113 4.113 0 0 0-3.833-4.101zm.837 4.5h-10.016l-.563-.135-14.373-7.314a3.518 3.518 0 0 0-1.586-.379h-1.212a.5.5 0 0 1-.5-.5V22.3a.5.5 0 0 1 .5-.5h7.315a.5.5 0 0 1 .247.065l8.236 4.644a.777.777 0 0 1 .393.673.76.76 0 0 1-.383.667.765.765 0 0 1-.768.006l-3.076-1.738a3.739 3.739 0 0 0-3.756.032 3.738 3.738 0 0 0-1.869 3.258 3.779 3.779 0 0 0 1.925 3.29l7.726 4.344a3.516 3.516 0 0 0 1.477.44l9.241.691a1.112 1.112 0 0 1 1.042 1.108z"/>
        </g>
    </g>
</svg>
